<svg width="21" height="21" viewBox="0 0 21 21" fill="none" xmlns="http://www.w3.org/2000/svg">
<path fill-rule="evenodd" clip-rule="evenodd" d="M16.7824 4.21763C13.3127 0.747972 7.6873 0.74797 4.21763 4.21764C0.747972 7.68727 0.74797 13.3127 4.21763 16.7824C7.68727 20.252 13.3127 20.252 16.7824 16.7824C20.2519 13.3128 20.252 7.6877 16.7827 4.218L16.7824 4.21763ZM17.9246 3.07538C22.0251 7.17589 22.0251 13.8241 17.9246 17.9246C13.8241 22.0251 7.17587 22.0251 3.07538 17.9246C-1.02513 13.8241 -1.02513 7.17587 3.07538 3.07538C7.17589 -1.02513 13.8241 -1.02513 17.9246 3.07538ZM9.41316 8.20928C9.24651 8.5797 9.15378 8.99057 9.15378 9.42309C9.15378 11.0587 10.4797 12.3846 12.1153 12.3846C12.1326 12.3846 12.1498 12.3845 12.167 12.3842C12.22 12.3765 12.274 12.374 12.3282 12.3771C13.8652 12.2681 15.0769 10.9873 15.0769 9.42309C15.0769 7.78732 13.7519 6.46155 12.1153 6.46155C10.9442 6.46155 9.93182 7.14134 9.45129 8.12787C9.44007 8.15579 9.42732 8.18296 9.41316 8.20928ZM7.56369 8.93906C6.59025 9.42183 5.92301 10.4207 5.92301 11.5769C5.92301 13.2126 7.24893 14.5385 8.88455 14.5385C9.62286 14.5385 10.2971 14.2655 10.8151 13.8127C8.92069 13.2524 7.5384 11.4992 7.5384 9.42309C7.5384 9.2596 7.54697 9.09812 7.56369 8.93906ZM12.7844 13.9515C11.9845 15.2652 10.5455 16.1539 8.88455 16.1539C6.35678 16.1539 4.30762 14.1047 4.30762 11.5769C4.30762 9.28306 5.99726 7.40168 8.19025 7.06759C8.99072 5.7366 10.449 4.84617 12.1153 4.84617C14.6443 4.84617 16.6923 6.89547 16.6923 9.42309C16.6923 11.7236 14.9959 13.6278 12.7844 13.9515Z" fill="#FBAB34"/>
</svg>
