<svg width="32" height="32" viewBox="0 0 32 32" fill="none" xmlns="http://www.w3.org/2000/svg">
<path fill-rule="evenodd" clip-rule="evenodd" d="M13.7243 3.45898C14.4477 3.33001 15.1977 3.25 15.9733 3.25C18.4198 3.25 20.7037 3.94112 22.6445 5.13343C23.1562 4.7288 23.8032 4.4873 24.5067 4.4873C26.1621 4.4873 27.5087 5.82831 27.5087 7.4853C27.5087 9.14097 26.1648 10.4806 24.508 10.4806L24.5072 10.4806C22.8531 10.4789 21.506 9.14036 21.506 7.48264C21.506 7.07615 21.587 6.68871 21.7338 6.33547C20.0483 5.32985 18.0802 4.75 15.9733 4.75C15.301 4.75 14.6403 4.81933 13.9876 4.93569C13.5799 5.00839 13.1903 4.73676 13.1176 4.32898C13.0449 3.9212 13.3166 3.53168 13.7243 3.45898ZM23.2655 6.64163C23.1016 6.88143 23.006 7.17108 23.006 7.48264C23.006 8.30749 23.6774 8.9796 24.5085 8.98064C25.3395 8.98036 26.0087 8.30947 26.0087 7.4853C26.0087 6.65963 25.3366 5.9873 24.5067 5.9873C24.0669 5.9873 23.6725 6.17507 23.3985 6.47399C23.3895 6.48937 23.3799 6.50456 23.3696 6.5195C23.3387 6.56471 23.3037 6.60547 23.2655 6.64163Z" fill="#FBAB34"/>
<path fill-rule="evenodd" clip-rule="evenodd" d="M16.5298 11.4784C16.237 11.1862 15.763 11.1862 15.4702 11.4784L11.4702 15.4704C11.3292 15.6111 11.25 15.8021 11.25 16.0013C11.25 16.2005 11.3293 16.3915 11.4703 16.5322L15.4703 20.5229C15.763 20.815 16.237 20.815 16.5297 20.5229L20.5297 16.5322C20.6707 16.3915 20.75 16.2005 20.75 16.0013C20.75 15.8021 20.6708 15.6111 20.5298 15.4704L16.5298 11.4784ZM16 18.9325L13.0618 16.0012L16 13.0689L18.9382 16.0012L16 18.9325Z" fill="#FBAB34"/>
<path fill-rule="evenodd" clip-rule="evenodd" d="M28.75 16.0013C28.75 18.4425 28.058 20.7211 26.864 22.6577C27.7989 23.834 27.7212 25.5482 26.6309 26.6352C26.4635 26.802 26.2814 26.945 26.0888 27.0642C25.6297 27.3488 25.0883 27.5133 24.5088 27.514C23.1427 27.5154 21.9899 26.6054 21.6265 25.3581C21.329 24.3415 21.5823 23.1986 22.3865 22.3969C23.0781 21.7074 24.0223 21.4245 24.9211 21.5483C25.1798 21.5835 25.428 21.6517 25.6613 21.7484C26.6692 20.0666 27.25 18.1032 27.25 16.0013C27.25 15.3304 27.1807 14.6711 27.0644 14.0198C26.9915 13.6121 27.263 13.2225 27.6708 13.1496C28.0785 13.0768 28.4681 13.3483 28.541 13.7561C28.67 14.4781 28.75 15.2268 28.75 16.0013ZM25.4753 23.3821C25.4313 23.3519 25.3915 23.3178 25.3561 23.2805C25.1715 23.1547 24.9651 23.0744 24.7527 23.0398C24.6737 23.0271 24.5927 23.0205 24.5101 23.0206L24.5093 23.0206C23.6784 23.0206 23.0073 23.6927 23.0073 24.5186C23.0073 24.6822 23.0336 24.8396 23.0821 24.987C23.1533 25.2011 23.2745 25.4023 23.4455 25.5729C23.986 26.1117 24.835 26.1547 25.4246 25.7019C25.781 25.4275 26.01 24.9975 26.01 24.516C26.01 24.1747 25.8957 23.8601 25.7031 23.6084C25.6632 23.5565 25.6194 23.5066 25.5718 23.4592C25.5556 23.4429 25.539 23.4272 25.5222 23.4119C25.5064 23.4026 25.4907 23.3927 25.4753 23.3821Z" fill="#FBAB34"/>
<path fill-rule="evenodd" clip-rule="evenodd" d="M5.13561 9.34439C3.94183 11.2811 3.25 13.5605 3.25 16.0014C3.25 16.7758 3.33003 17.5245 3.45902 18.2466C3.53186 18.6544 3.92147 18.9259 4.32923 18.853C4.73698 18.7802 5.00849 18.3906 4.93565 17.9828C4.81931 17.3316 4.75 16.6723 4.75 16.0014C4.75 13.8998 5.33065 11.9357 6.3381 10.2539C6.69306 10.4012 7.08252 10.4824 7.49107 10.482C9.14794 10.4818 10.4927 9.14055 10.4927 7.48398C10.4927 5.82756 9.14925 4.48709 7.4916 4.48865C5.83473 4.48887 4.49001 5.83008 4.49001 7.48665C4.49001 8.18869 4.73133 8.83398 5.13561 9.34439ZM6.52468 8.61919C6.57073 8.65083 6.61214 8.68669 6.64875 8.7259C6.88842 8.88784 7.17781 8.98232 7.48987 8.98198H7.49067C8.32162 8.98198 8.99267 8.30994 8.99267 7.48398C8.99267 6.65787 8.32297 5.98776 7.49281 5.98865L7.49201 5.98865C6.66106 5.98865 5.99001 6.66069 5.99001 7.48665C5.99001 7.92137 6.17545 8.31289 6.47214 8.58617C6.48994 8.59637 6.50747 8.60737 6.52468 8.61919Z" fill="#FBAB34"/>
<path fill-rule="evenodd" clip-rule="evenodd" d="M10.2662 25.6645C10.413 25.3113 10.494 24.9238 10.494 24.5173C10.494 22.8596 9.14687 21.5211 7.4928 21.5193H7.492C5.83524 21.5193 4.49133 22.859 4.49133 24.5146C4.49133 26.1716 5.8379 27.5126 7.49333 27.5126C8.19672 27.5126 8.84372 27.2711 9.35542 26.8665C11.2963 28.0589 13.5802 28.75 16.0267 28.75C16.8023 28.75 17.5523 28.67 18.2757 28.541C18.6834 28.4683 18.9551 28.0788 18.8824 27.671C18.8097 27.2632 18.4201 26.9916 18.0124 27.0643C17.3597 27.1807 16.699 27.25 16.0267 27.25C13.9198 27.25 11.9517 26.6701 10.2662 25.6645ZM8.73438 25.3585C8.69619 25.3946 8.66124 25.4354 8.63035 25.4805C8.62017 25.4954 8.61061 25.5105 8.60164 25.5258C8.32762 25.8248 7.93313 26.0126 7.49333 26.0126C6.66343 26.0126 5.99133 25.3403 5.99133 24.5146C5.99133 23.6904 6.66054 23.0195 7.49159 23.0193C8.32267 23.0204 8.994 23.6925 8.994 24.5173C8.994 24.8289 8.89832 25.1187 8.73438 25.3585Z" fill="#FBAB34"/>
</svg>
