<svg width="32" height="32" viewBox="0 0 32 32" fill="none" xmlns="http://www.w3.org/2000/svg">
<path fill-rule="evenodd" clip-rule="evenodd" d="M4 3.25C4.41421 3.25 4.75 3.58579 4.75 4V25.3333C4.75 26.3925 5.60755 27.25 6.66667 27.25H28C28.4142 27.25 28.75 27.5858 28.75 28C28.75 28.4142 28.4142 28.75 28 28.75H6.66667C4.77912 28.75 3.25 27.2209 3.25 25.3333V4C3.25 3.58579 3.58579 3.25 4 3.25Z" fill="#FBAB34"/>
<path fill-rule="evenodd" clip-rule="evenodd" d="M28.4801 7.42382C28.7983 7.68898 28.8413 8.1619 28.5762 8.48012L22.4455 15.8375C21.9332 16.4518 21.1161 16.7186 20.3399 16.5251L20.3393 16.5249L16.6301 15.5969C16.4133 15.5427 16.1838 15.6173 16.0402 15.7895L9.90952 23.1468C9.64436 23.465 9.17143 23.508 8.85322 23.2429C8.535 22.9777 8.49199 22.5048 8.75715 22.1866L14.8878 14.8292C15.4001 14.2148 16.2188 13.948 16.9939 14.1417L20.7028 15.0696C20.9211 15.124 21.1495 15.0494 21.2932 14.8772L27.4238 7.51988C27.689 7.20167 28.1619 7.15865 28.4801 7.42382Z" fill="#FBAB34"/>
</svg>
