<svg width="32" height="32" viewBox="0 0 32 32" fill="none" xmlns="http://www.w3.org/2000/svg">
<path fill-rule="evenodd" clip-rule="evenodd" d="M9.57017 5.85619C9.81308 6.19171 9.73799 6.66061 9.40248 6.90351C8.68107 7.42578 8.02524 8.02696 7.45041 8.70029C7.18147 9.01532 6.70807 9.05269 6.39304 8.78374C6.07801 8.5148 6.04065 8.0414 6.30959 7.72637C6.96409 6.95971 7.70826 6.27822 8.52286 5.68849C8.85837 5.44559 9.32727 5.52067 9.57017 5.85619Z" fill="#FBAB34"/>
<path fill-rule="evenodd" clip-rule="evenodd" d="M23.2898 25.5586C23.5203 25.9027 23.4282 26.3686 23.0841 26.5991C21.0582 27.9563 18.6216 28.75 16 28.75C14.7079 28.75 13.4624 28.5544 12.2885 28.1976C11.8922 28.0771 11.6686 27.6582 11.7891 27.2619C11.9096 26.8656 12.3285 26.642 12.7248 26.7624C13.7616 27.0776 14.8601 27.25 16 27.25C18.3144 27.25 20.4619 26.5503 22.2492 25.3529C22.5934 25.1224 23.0592 25.2144 23.2898 25.5586Z" fill="#FBAB34"/>
<path fill-rule="evenodd" clip-rule="evenodd" d="M4.44681 19.2931C4.83723 19.1547 5.26589 19.3591 5.40425 19.7495C6.10594 21.7294 7.33634 23.4569 8.93668 24.75C9.25887 25.0103 9.30903 25.4825 9.04871 25.8047C8.78839 26.1269 8.31618 26.177 7.99398 25.9167C6.17832 24.4497 4.78473 22.4919 3.99041 20.2505C3.85205 19.8601 4.05639 19.4314 4.44681 19.2931Z" fill="#FBAB34"/>
<path fill-rule="evenodd" clip-rule="evenodd" d="M4.94777 11.293C5.33821 11.4314 5.5426 11.86 5.40428 12.2504C4.98674 13.4291 4.75 14.6859 4.75 16C4.75 16.4142 4.41421 16.75 4 16.75C3.58579 16.75 3.25 16.4142 3.25 16C3.25 14.5035 3.51993 13.0776 3.99038 11.7496C4.1287 11.3591 4.55734 11.1547 4.94777 11.293Z" fill="#FBAB34"/>
<path fill-rule="evenodd" clip-rule="evenodd" d="M16 4.75C14.8601 4.75 13.7616 4.92242 12.7248 5.23758C12.3285 5.35805 11.9096 5.13444 11.7891 4.73813C11.6686 4.34182 11.8922 3.92289 12.2885 3.80242C13.4624 3.44558 14.7079 3.25 16 3.25C23.0422 3.25 28.75 8.95779 28.75 16C28.75 18.631 27.9367 21.061 26.5727 23.0857C26.3413 23.4292 25.8752 23.5201 25.5316 23.2887C25.1881 23.0573 25.0972 22.5912 25.3286 22.2476C26.5353 20.4564 27.25 18.3157 27.25 16C27.25 9.78621 22.2138 4.75 16 4.75Z" fill="#FBAB34"/>
<path fill-rule="evenodd" clip-rule="evenodd" d="M11.7633 15.9733C11.7633 15.5591 12.0991 15.2233 12.5133 15.2233H18.24C20.0102 15.2233 21.446 16.6591 21.446 18.4293C21.446 20.1985 20.0113 21.6327 18.2413 21.6327H12.5133C12.0991 21.6327 11.7633 21.2969 11.7633 20.8827V15.9733ZM13.2633 16.7233V20.1327H18.2413C19.1834 20.1327 19.946 19.3695 19.946 18.4293C19.946 17.4875 19.1818 16.7233 18.24 16.7233H13.2633Z" fill="#FBAB34"/>
<path fill-rule="evenodd" clip-rule="evenodd" d="M11.7633 10.9093C11.7633 10.4951 12.0991 10.1593 12.5133 10.1593H17.62C19.4329 10.1593 20.902 11.6285 20.902 13.4413C20.902 15.2542 19.4329 16.7233 17.62 16.7233C17.2058 16.7233 16.87 16.3875 16.87 15.9733C16.87 15.5591 17.2058 15.2233 17.62 15.2233C18.6045 15.2233 19.402 14.4258 19.402 13.4413C19.402 12.4569 18.6045 11.6593 17.62 11.6593H13.2633V15.9733C13.2633 16.3875 12.9275 16.7233 12.5133 16.7233C12.0991 16.7233 11.7633 16.3875 11.7633 15.9733V10.9093Z" fill="#FBAB34"/>
<path fill-rule="evenodd" clip-rule="evenodd" d="M15.712 8.70467C16.1262 8.70467 16.462 9.04045 16.462 9.45467V10.9053C16.462 11.3195 16.1262 11.6553 15.712 11.6553C15.2978 11.6553 14.962 11.3195 14.962 10.9053V9.45467C14.962 9.04045 15.2978 8.70467 15.712 8.70467Z" fill="#FBAB34"/>
<path fill-rule="evenodd" clip-rule="evenodd" d="M15.712 20.1593C16.1262 20.1593 16.462 20.4951 16.462 20.9093V22.5453C16.462 22.9595 16.1262 23.2953 15.712 23.2953C15.2978 23.2953 14.962 22.9595 14.962 22.5453V20.9093C14.962 20.4951 15.2978 20.1593 15.712 20.1593Z" fill="#FBAB34"/>
</svg>
