<svg width="34" height="34" viewBox="0 0 34 34" fill="none" xmlns="http://www.w3.org/2000/svg">
<path d="M29.0051 13.6652V9.66358C29.0051 7.82186 27.5121 6.32886 25.6704 6.32886H8.32984C6.48812 6.32886 4.99512 7.82186 4.99512 9.66358V14.3322" stroke="#FBAB34" stroke-width="1.5" stroke-linecap="round" stroke-linejoin="round"/>
<path d="M29.0051 20.3347V24.3364C29.0051 26.1781 27.5121 27.6711 25.6704 27.6711H15.6663" stroke="#FBAB34" stroke-width="1.5" stroke-linecap="round" stroke-linejoin="round"/>
<path d="M4.99507 27.6711V19.6677" stroke="#FBAB34" stroke-width="1.5" stroke-linecap="round" stroke-linejoin="round"/>
<path d="M7.74336 18.3339V19.6678" stroke="#FBAB34" stroke-width="1.5" stroke-linecap="round" stroke-linejoin="round"/>
<path d="M7.74336 27.671V29.0049" stroke="#FBAB34" stroke-width="1.5" stroke-linecap="round" stroke-linejoin="round"/>
<path fill-rule="evenodd" clip-rule="evenodd" d="M4.99512 23.6694H9.66373C10.7688 23.6694 11.6646 24.5652 11.6646 25.6703V25.6703C11.6646 26.7753 10.7688 27.6711 9.66373 27.6711H4.99512V23.6694Z" stroke="#FBAB34" stroke-width="1.5" stroke-linecap="round" stroke-linejoin="round"/>
<path fill-rule="evenodd" clip-rule="evenodd" d="M4.99512 19.6677H9.19687C10.3019 19.6677 11.1977 20.5635 11.1977 21.6686V21.6686C11.1977 22.7736 10.3019 23.6694 9.19687 23.6694H4.99512V19.6677Z" stroke="#FBAB34" stroke-width="1.5" stroke-linecap="round" stroke-linejoin="round"/>
<path fill-rule="evenodd" clip-rule="evenodd" d="M25.6704 13.6653H29.0051C29.7418 13.6653 30.339 14.2625 30.339 14.9992V19.0008C30.339 19.7375 29.7418 20.3347 29.0051 20.3347H25.6704C23.8287 20.3347 22.3357 18.8417 22.3357 17V17C22.3357 15.1583 23.8287 13.6653 25.6704 13.6653V13.6653Z" stroke="#FBAB34" stroke-width="1.5" stroke-linecap="round" stroke-linejoin="round"/>
<path d="M11.6646 12.9982H18.334" stroke="#FBAB34" stroke-width="1.5" stroke-linecap="round" stroke-linejoin="round"/>
</svg>
