<svg width="94" height="16" viewBox="0 0 94 16" fill="none" xmlns="http://www.w3.org/2000/svg">
<path d="M37.1962 9.23631C37.1962 9.04554 37.1664 8.87434 37.1066 8.72271C37.0519 8.56618 36.9473 8.42433 36.793 8.29715C36.6387 8.16508 36.4221 8.03546 36.1434 7.90828C35.8646 7.78111 35.5037 7.64904 35.0606 7.51208C34.5678 7.35555 34.0998 7.17946 33.6568 6.9838C33.2187 6.78814 32.8304 6.56069 32.4919 6.30145C32.1583 6.03731 31.8945 5.7316 31.7003 5.3843C31.5112 5.03701 31.4166 4.63347 31.4166 4.17367C31.4166 3.72855 31.5162 3.32501 31.7153 2.96305C31.9144 2.59619 32.1932 2.28314 32.5516 2.02389C32.91 1.75975 33.3332 1.55676 33.821 1.41491C34.3139 1.27306 34.854 1.20213 35.4414 1.20213C36.2429 1.20213 36.9424 1.34398 37.5397 1.62769C38.1371 1.91139 38.6001 2.30026 38.9286 2.79429C39.2622 3.28833 39.429 3.85329 39.429 4.48917H37.2037C37.2037 4.17612 37.1365 3.9022 37.0021 3.66741C36.8727 3.42773 36.6735 3.23941 36.4047 3.10245C36.1409 2.96549 35.8073 2.89701 35.4041 2.89701C35.0158 2.89701 34.6922 2.95571 34.4334 3.0731C34.1745 3.18561 33.9803 3.33969 33.8509 3.53534C33.7215 3.72611 33.6568 3.94133 33.6568 4.18101C33.6568 4.36199 33.7016 4.52586 33.7912 4.6726C33.8858 4.81934 34.0252 4.9563 34.2093 5.08348C34.3935 5.21066 34.62 5.3305 34.8889 5.443C35.1577 5.5555 35.4688 5.66556 35.8223 5.77317C36.4147 5.94926 36.9349 6.14737 37.3829 6.36748C37.8359 6.5876 38.2143 6.83461 38.518 7.10853C38.8216 7.38245 39.0506 7.69306 39.2049 8.04035C39.3593 8.38764 39.4364 8.7814 39.4364 9.22163C39.4364 9.68632 39.3443 10.1021 39.1601 10.4689C38.9759 10.8358 38.7096 11.1464 38.3611 11.4008C38.0127 11.6551 37.597 11.8483 37.1141 11.9804C36.6312 12.1125 36.0911 12.1785 35.4937 12.1785C34.9561 12.1785 34.4259 12.11 33.9032 11.9731C33.3805 11.8312 32.9051 11.6184 32.4769 11.3347C32.0538 11.051 31.7153 10.6891 31.4614 10.2488C31.2075 9.8086 31.0806 9.28767 31.0806 8.68602H33.3282C33.3282 9.01864 33.3805 9.29989 33.485 9.52979C33.5896 9.75969 33.7364 9.94556 33.9256 10.0874C34.1197 10.2293 34.3487 10.332 34.6126 10.3956C34.8814 10.4592 35.1751 10.491 35.4937 10.491C35.882 10.491 36.2006 10.4372 36.4495 10.3295C36.7034 10.2219 36.8901 10.0727 37.0096 9.88197C37.134 9.69121 37.1962 9.47599 37.1962 9.23631Z" fill="#8C8A97"/>
<path d="M43.2223 11.1366L45.3654 4.09297H47.6728L44.4245 13.2277C44.3549 13.4283 44.2603 13.6435 44.1408 13.8734C44.0263 14.1033 43.8695 14.3209 43.6704 14.5264C43.4762 14.7367 43.2298 14.9079 42.9311 15.04C42.6374 15.1721 42.2765 15.2381 41.8483 15.2381C41.6442 15.2381 41.4775 15.2259 41.348 15.2014C41.2186 15.1769 41.0643 15.1427 40.8851 15.0987V13.5505C40.9398 13.5505 40.9971 13.5505 41.0568 13.5505C41.1166 13.5554 41.1738 13.5579 41.2286 13.5579C41.5123 13.5579 41.7438 13.5261 41.923 13.4625C42.1022 13.3989 42.2466 13.3011 42.3561 13.169C42.4656 13.0418 42.5528 12.8755 42.6175 12.6701L43.2223 11.1366ZM42.3262 4.09297L44.0811 9.84529L44.3872 12.0831L42.9236 12.2372L40.0189 4.09297H42.3262Z" fill="#8C8A97"/>
<path d="M50.6373 5.78785V12.0318H48.4867V4.09297H50.5029L50.6373 5.78785ZM50.3237 7.78355H49.7412C49.7412 7.19658 49.8184 6.6683 49.9727 6.19873C50.127 5.72426 50.3436 5.32072 50.6224 4.9881C50.9011 4.65059 51.2322 4.39379 51.6155 4.2177C52.0038 4.03671 52.4369 3.94622 52.9148 3.94622C53.2932 3.94622 53.6391 4.00003 53.9528 4.10764C54.2664 4.21525 54.5352 4.38645 54.7592 4.62124C54.9882 4.85603 55.1625 5.16664 55.2819 5.55306C55.4064 5.93948 55.4686 6.4115 55.4686 6.96913V12.0318H53.3031V6.96179C53.3031 6.60961 53.2533 6.33569 53.1538 6.14003C53.0542 5.94437 52.9073 5.80741 52.7132 5.72915C52.524 5.646 52.2901 5.60442 52.0113 5.60442C51.7225 5.60442 51.4711 5.66067 51.2571 5.77317C51.048 5.88568 50.8738 6.0422 50.7344 6.24275C50.6 6.43841 50.4979 6.6683 50.4282 6.93244C50.3585 7.19658 50.3237 7.48028 50.3237 7.78355Z" fill="#8C8A97"/>
<path d="M60.4418 10.5276C60.7056 10.5276 60.9396 10.4787 61.1437 10.3809C61.3478 10.2782 61.5071 10.1363 61.6216 9.95535C61.7411 9.76947 61.8033 9.5518 61.8083 9.30234H63.8319C63.827 9.85996 63.6751 10.3564 63.3764 10.7918C63.0777 11.2222 62.677 11.5622 62.1742 11.8116C61.6714 12.0562 61.1089 12.1785 60.4866 12.1785C59.8594 12.1785 59.3118 12.0758 58.8438 11.8703C58.3808 11.6649 57.995 11.3812 57.6864 11.0192C57.3777 10.6524 57.1463 10.2268 56.9919 9.74257C56.8376 9.25343 56.7605 8.73004 56.7605 8.17242V7.95964C56.7605 7.39713 56.8376 6.87374 56.9919 6.38949C57.1463 5.90035 57.3777 5.4748 57.6864 5.11283C57.995 4.74597 58.3808 4.45982 58.8438 4.25438C59.3068 4.04894 59.8494 3.94622 60.4717 3.94622C61.1338 3.94622 61.7137 4.07095 62.2115 4.32042C62.7143 4.56988 63.1076 4.92696 63.3914 5.39164C63.6801 5.85144 63.827 6.39683 63.8319 7.02782H61.8083C61.8033 6.76369 61.7461 6.52401 61.6366 6.30878C61.532 6.09356 61.3777 5.92236 61.1736 5.79518C60.9745 5.66312 60.7281 5.59708 60.4343 5.59708C60.1207 5.59708 59.8643 5.66312 59.6652 5.79518C59.4661 5.92236 59.3118 6.09845 59.2022 6.32346C59.0927 6.54357 59.0156 6.79548 58.9708 7.07918C58.9309 7.358 58.911 7.65148 58.911 7.95964V8.17242C58.911 8.48058 58.9309 8.77651 58.9708 9.06021C59.0106 9.34392 59.0853 9.59583 59.1948 9.81594C59.3093 10.0361 59.4661 10.2097 59.6652 10.3369C59.8643 10.4641 60.1232 10.5276 60.4418 10.5276Z" fill="#8C8A97"/>
<path d="M67.1773 0.761902V12.0318H65.0267V0.761902H67.1773ZM66.8711 7.78355H66.2812C66.2862 7.23082 66.3608 6.72211 66.5052 6.25742C66.6496 5.78785 66.8562 5.38186 67.125 5.03946C67.3938 4.69217 67.7149 4.42314 68.0883 4.23237C68.4666 4.04161 68.8848 3.94622 69.3428 3.94622C69.741 3.94622 70.1019 4.00247 70.4255 4.11498C70.7541 4.22259 71.0353 4.39868 71.2693 4.64325C71.5083 4.88293 71.6925 5.19843 71.8219 5.58974C71.9513 5.98106 72.016 6.45553 72.016 7.01315V12.0318H69.8505V6.99848C69.8505 6.64629 69.7983 6.36993 69.6937 6.16938C69.5942 5.96394 69.4473 5.81964 69.2532 5.73649C69.064 5.64844 68.83 5.60442 68.5512 5.60442C68.2426 5.60442 67.9788 5.66067 67.7597 5.77317C67.5457 5.88568 67.3739 6.0422 67.2445 6.24275C67.115 6.43841 67.0205 6.6683 66.9607 6.93244C66.901 7.19658 66.8711 7.48028 66.8711 7.78355Z" fill="#8C8A97"/>
<path d="M6.57483 8.43078H8.78865C8.74422 9.16329 8.54431 9.81357 8.18892 10.3816C7.83846 10.9497 7.34732 11.3932 6.71551 11.7121C6.08863 12.031 5.33341 12.1905 4.44986 12.1905C3.75881 12.1905 3.13933 12.0709 2.59143 11.8317C2.04353 11.5875 1.5746 11.2387 1.18465 10.7853C0.799641 10.3318 0.505946 9.78367 0.303567 9.14086C0.101189 8.49805 0 7.778 0 6.98072V6.22579C0 5.42851 0.103657 4.70846 0.310972 4.06565C0.523222 3.41786 0.824322 2.86723 1.21427 2.41378C1.60915 1.96032 2.08055 1.61151 2.62845 1.36734C3.17635 1.12317 3.78842 1.00109 4.46466 1.00109C5.36303 1.00109 6.12071 1.16553 6.73772 1.49441C7.35966 1.82329 7.84093 2.27674 8.18151 2.85477C8.52704 3.4328 8.73435 4.09056 8.80346 4.82805H6.58223C6.55755 4.38955 6.47117 4.01831 6.32309 3.71435C6.17501 3.4054 5.95042 3.17369 5.64932 3.01921C5.35315 2.85976 4.95827 2.78003 4.46466 2.78003C4.09446 2.78003 3.77115 2.84979 3.49473 2.98931C3.21831 3.12884 2.98631 3.34062 2.79874 3.62465C2.61117 3.90868 2.4705 4.26746 2.37671 4.70098C2.28786 5.12952 2.24344 5.63281 2.24344 6.21084V6.98072C2.24344 7.5438 2.28539 8.03961 2.36931 8.46815C2.45322 8.89171 2.58156 9.25049 2.75432 9.54449C2.93202 9.8335 3.15908 10.0528 3.4355 10.2022C3.71685 10.3468 4.05497 10.419 4.44986 10.419C4.91384 10.419 5.29639 10.3443 5.59749 10.1948C5.89859 10.0453 6.12811 9.82354 6.28607 9.52954C6.44896 9.23554 6.54521 8.86929 6.57483 8.43078Z" fill="#FBAB34"/>
<path d="M9.77339 8.07948V7.92251C9.77339 7.32953 9.85731 6.78389 10.0251 6.28559C10.193 5.7823 10.4373 5.34629 10.7581 4.97754C11.079 4.6088 11.4739 4.32227 11.9428 4.11797C12.4117 3.90868 12.9497 3.80404 13.5569 3.80404C14.164 3.80404 14.7045 3.90868 15.1784 4.11797C15.6522 4.32227 16.0496 4.6088 16.3704 4.97754C16.6962 5.34629 16.943 5.7823 17.1108 6.28559C17.2787 6.78389 17.3626 7.32953 17.3626 7.92251V8.07948C17.3626 8.66747 17.2787 9.21311 17.1108 9.7164C16.943 10.2147 16.6962 10.6507 16.3704 11.0244C16.0496 11.3932 15.6547 11.6797 15.1858 11.884C14.7169 12.0883 14.1788 12.1905 13.5717 12.1905C12.9646 12.1905 12.4241 12.0883 11.9502 11.884C11.4813 11.6797 11.0839 11.3932 10.7581 11.0244C10.4373 10.6507 10.193 10.2147 10.0251 9.7164C9.85731 9.21311 9.77339 8.66747 9.77339 8.07948ZM11.9058 7.92251V8.07948C11.9058 8.41832 11.9354 8.73474 11.9946 9.02874C12.0539 9.32274 12.1476 9.58186 12.276 9.8061C12.4092 10.0253 12.582 10.1973 12.7943 10.3218C13.0065 10.4464 13.2657 10.5087 13.5717 10.5087C13.8679 10.5087 14.1221 10.4464 14.3343 10.3218C14.5466 10.1973 14.7169 10.0253 14.8452 9.8061C14.9735 9.58186 15.0673 9.32274 15.1265 9.02874C15.1907 8.73474 15.2228 8.41832 15.2228 8.07948V7.92251C15.2228 7.59363 15.1907 7.28468 15.1265 6.99567C15.0673 6.70167 14.9711 6.44255 14.8378 6.21832C14.7094 5.9891 14.5392 5.80971 14.3269 5.68015C14.1147 5.55059 13.858 5.48581 13.5569 5.48581C13.2558 5.48581 12.9991 5.55059 12.7869 5.68015C12.5795 5.80971 12.4092 5.9891 12.276 6.21832C12.1476 6.44255 12.0539 6.70167 11.9946 6.99567C11.9354 7.28468 11.9058 7.59363 11.9058 7.92251Z" fill="#FBAB34"/>
<path d="M20.9239 3.95353V12.041H18.7842V3.95353H20.9239ZM18.6509 1.84571C18.6509 1.53178 18.7595 1.27266 18.9767 1.06836C19.1939 0.864054 19.4851 0.761902 19.8504 0.761902C20.2107 0.761902 20.4994 0.864054 20.7166 1.06836C20.9388 1.27266 21.0498 1.53178 21.0498 1.84571C21.0498 2.15964 20.9388 2.41876 20.7166 2.62306C20.4994 2.82737 20.2107 2.92952 19.8504 2.92952C19.4851 2.92952 19.1939 2.82737 18.9767 2.62306C18.7595 2.41876 18.6509 2.15964 18.6509 1.84571Z" fill="#FBAB34"/>
<path d="M24.7741 5.68015V12.041H22.6417V3.95353H24.6408L24.7741 5.68015ZM24.4631 7.71322H23.8856C23.8856 7.11526 23.9621 6.57709 24.1151 6.09872C24.2681 5.61537 24.4828 5.20427 24.7593 4.86542C25.0357 4.5216 25.3639 4.25999 25.744 4.0806C26.129 3.89623 26.5585 3.80404 27.0323 3.80404C27.4075 3.80404 27.7505 3.85885 28.0615 3.96848C28.3725 4.07811 28.639 4.25251 28.8611 4.4917C29.0882 4.73088 29.2609 5.0473 29.3794 5.44096C29.5028 5.83462 29.5645 6.31549 29.5645 6.88355V12.041H27.4173V6.87608C27.4173 6.5173 27.368 6.23825 27.2692 6.03893C27.1705 5.83961 27.0249 5.70008 26.8324 5.62035C26.6448 5.53564 26.4128 5.49329 26.1364 5.49329C25.8501 5.49329 25.6009 5.55059 25.3886 5.6652C25.1813 5.77981 25.0085 5.93927 24.8703 6.14357C24.737 6.34289 24.6359 6.57709 24.5668 6.84618C24.4977 7.11526 24.4631 7.40428 24.4631 7.71322Z" fill="#FBAB34"/>
<path fill-rule="evenodd" clip-rule="evenodd" d="M90.8027 3.21343C88.1725 0.569884 83.908 0.569882 81.2778 3.21344L81.2778 3.21344C78.6476 5.85697 78.6476 10.143 81.2778 12.7866C83.908 15.4301 88.1725 15.4301 90.8027 12.7866C93.4328 10.1431 93.4329 5.85729 90.803 3.21372L90.8027 3.21343ZM91.6686 2.34315C94.777 5.46735 94.777 10.5327 91.6686 13.6569C88.5601 16.781 83.5203 16.781 80.4119 13.6568C77.3035 10.5327 77.3035 5.46733 80.4119 2.34315C83.5204 -0.781049 88.5601 -0.781051 91.6686 2.34315ZM85.2167 6.25395C85.0902 6.53637 85.0198 6.84967 85.0198 7.1795C85.0198 8.42569 86.0249 9.43592 87.2648 9.43592C87.2778 9.43592 87.2908 9.43581 87.3038 9.43558C87.3441 9.4297 87.3851 9.42782 87.4263 9.43018C88.5914 9.34703 89.5098 8.37125 89.5098 7.1795C89.5098 5.93321 88.5054 4.92309 87.2648 4.92309C86.3767 4.92309 85.609 5.44138 85.2449 6.19344C85.2366 6.21418 85.2272 6.23437 85.2167 6.25395ZM83.8144 6.81066C83.0764 7.17848 82.5706 7.93956 82.5706 8.82051C82.5706 10.0667 83.5757 11.0769 84.8156 11.0769C85.3753 11.0769 85.8864 10.8689 86.2791 10.524C84.843 10.0971 83.7952 8.76128 83.7952 7.1795C83.7952 7.05492 83.8017 6.93187 83.8144 6.81066ZM87.7719 10.6297C87.1655 11.6306 86.0747 12.3077 84.8156 12.3077C82.8994 12.3077 81.346 10.7464 81.346 8.82051C81.346 7.07277 82.6269 5.63931 84.2894 5.38481C84.8962 4.37073 86.0017 3.69232 87.2648 3.69232C89.1819 3.69232 90.7344 5.2537 90.7344 7.1795C90.7344 8.93227 89.4484 10.3832 87.7719 10.6297Z" fill="#FBAB34"/>
</svg>
