<svg width="34" height="34" viewBox="0 0 34 34" fill="none" xmlns="http://www.w3.org/2000/svg">
<g id="Group">
<path id="Path" d="M29.0046 13.6652V9.66358C29.0046 7.82186 27.5116 6.32886 25.6699 6.32886H8.32935C6.48763 6.32886 4.99463 7.82186 4.99463 9.66358V14.3322" stroke="#FBAB34" stroke-width="2" stroke-linecap="round" stroke-linejoin="round"/>
<path id="Path_2" d="M29.0049 20.3347V24.3364C29.0049 26.1781 27.5119 27.6711 25.6702 27.6711H15.666" stroke="#FBAB34" stroke-width="2" stroke-linecap="round" stroke-linejoin="round"/>
<path id="Path_3" d="M4.99507 27.6712V19.6678" stroke="#FBAB34" stroke-width="2" stroke-linecap="round" stroke-linejoin="round"/>
<path id="Path_4" d="M7.74312 18.3339V19.6678" stroke="#FBAB34" stroke-width="2" stroke-linecap="round" stroke-linejoin="round"/>
<path id="Path_5" d="M7.74312 27.6711V29.005" stroke="#FBAB34" stroke-width="2" stroke-linecap="round" stroke-linejoin="round"/>
<path id="Path_6" fill-rule="evenodd" clip-rule="evenodd" d="M4.99463 23.6694H9.66324C10.7683 23.6694 11.6641 24.5652 11.6641 25.6703V25.6703C11.6641 26.7753 10.7683 27.6711 9.66324 27.6711H4.99463V23.6694Z" stroke="#FBAB34" stroke-width="2" stroke-linecap="round" stroke-linejoin="round"/>
<path id="Path_7" fill-rule="evenodd" clip-rule="evenodd" d="M4.99463 19.6678H9.19638C10.3014 19.6678 11.1972 20.5637 11.1972 21.6687V21.6687C11.1972 22.7737 10.3014 23.6695 9.19638 23.6695H4.99463V19.6678Z" stroke="#FBAB34" stroke-width="2" stroke-linecap="round" stroke-linejoin="round"/>
<path id="Path_8" fill-rule="evenodd" clip-rule="evenodd" d="M25.6702 13.6653H29.0049C29.7416 13.6653 30.3388 14.2625 30.3388 14.9992V19.0008C30.3388 19.7375 29.7416 20.3347 29.0049 20.3347H25.6702C23.8285 20.3347 22.3354 18.8417 22.3354 17V17C22.3354 15.1583 23.8285 13.6653 25.6702 13.6653V13.6653Z" stroke="#FBAB34" stroke-width="2" stroke-linecap="round" stroke-linejoin="round"/>
<path id="Path_9" d="M11.6641 12.9984H18.3335" stroke="#FBAB34" stroke-width="2" stroke-linecap="round" stroke-linejoin="round"/>
</g>
</svg>
